<?xml version="1.0" standalone="no"?>
<!DOCTYPE svg PUBLIC "-//W3C//DTD SVG 20010904//EN"
 "http://www.w3.org/TR/2001/REC-SVG-20010904/DTD/svg10.dtd">
<svg version="1.0" xmlns="http://www.w3.org/2000/svg"
 width="1024.000000pt" height="1024.000000pt" viewBox="0 0 1024.000000 1024.000000"
 preserveAspectRatio="xMidYMid meet">
<metadata>
Created by potrace 1.14, written by Peter Selinger 2001-2017
</metadata>
<g transform="translate(0.000000,1024.000000) scale(0.100000,-0.100000)"
fill="#000000" stroke="none">
<path d="M4676 9575 c-82 -33 -119 -67 -164 -150 -26 -49 -27 -54 -30 -255 -2
-113 -5 -206 -6 -207 -2 -2 -949 -3 -2107 -3 -2068 -1 -2105 -1 -2162 -21 -74
-25 -118 -60 -161 -129 -44 -70 -46 -94 -43 -505 l2 -390 26 -56 c31 -67 75
-111 144 -148 l50 -26 2124 -3 c1169 -1 2126 -4 2127 -5 2 -2 4 -85 4 -186 2
-201 12 -260 58 -321 35 -47 58 -65 117 -98 l50 -27 395 -2 c417 -3 439 -1
512 44 50 31 84 69 116 128 26 49 27 56 30 255 2 113 5 206 6 207 2 2 949 3
2107 3 1595 0 2114 3 2144 12 99 30 171 98 205 195 18 55 19 82 17 453 l-2
395 -27 50 c-33 59 -51 82 -98 117 -82 62 61 58 -2243 58 -1155 0 -2102 1
-2103 3 -2 2 -4 85 -4 186 -2 200 -12 258 -58 321 -36 50 -75 79 -140 106 -56
23 -62 23 -442 23 -383 0 -385 0 -444 -24z"/>
<path d="M7236 6375 c-82 -33 -119 -67 -164 -150 -26 -49 -27 -54 -30 -255 -2
-113 -5 -206 -6 -207 -1 -2 -1532 -4 -3402 -5 l-3399 -3 -55 -26 c-67 -32
-113 -77 -148 -144 l-27 -50 -3 -390 c-2 -428 1 -462 56 -535 35 -47 58 -65
117 -98 l50 -27 3404 -3 c1873 -1 3406 -3 3407 -5 2 -2 4 -85 4 -186 2 -201
12 -260 58 -321 35 -47 58 -65 117 -98 l50 -27 410 0 410 0 55 26 c65 30 118
82 151 147 23 44 24 59 27 252 2 113 5 206 6 207 1 2 373 3 827 3 603 0 835 4
864 12 99 29 171 98 205 195 18 55 19 82 17 453 l-2 395 -27 50 c-33 59 -51
82 -98 117 -78 58 -66 58 -963 58 -451 0 -822 1 -823 3 -2 2 -4 85 -4 186 -2
200 -12 258 -58 321 -36 50 -75 79 -140 106 -56 23 -62 23 -442 23 -383 0
-385 0 -444 -24z"/>
<path d="M2127 3179 c-74 -25 -118 -60 -161 -129 -38 -60 -44 -104 -46 -297 0
-103 -2 -188 -3 -190 -2 -1 -383 -4 -848 -5 l-844 -3 -50 -27 c-84 -45 -138
-109 -163 -193 -8 -27 -12 -155 -11 -411 0 -406 4 -443 57 -514 35 -47 58 -65
117 -98 l50 -27 844 -3 c465 -1 846 -4 847 -5 1 -1 4 -92 6 -202 3 -192 4
-202 30 -256 30 -67 74 -111 143 -148 l50 -26 415 0 415 0 50 27 c67 35 112
81 144 148 25 53 26 63 29 255 2 110 5 201 6 202 1 2 1525 3 3387 3 2587 0
3393 3 3424 12 99 30 171 98 205 195 18 55 19 82 17 453 l-2 395 -27 50 c-48
88 -102 134 -187 159 -49 14 -374 16 -3434 16 -1859 0 -3382 1 -3383 3 -2 2
-4 85 -4 186 -2 200 -12 258 -58 321 -36 50 -75 79 -140 106 -56 23 -63 23
-437 23 -352 0 -384 -1 -438 -20z"/>
</g>
</svg>
